<?xml version="1.0" encoding="UTF-8" standalone="no"?>
<svg width="103px" height="84px" viewBox="0 0 103 84" version="1.1" xmlns="http://www.w3.org/2000/svg" xmlns:xlink="http://www.w3.org/1999/xlink">
    <!-- Generator: Sketch 39.1 (31720) - http://www.bohemiancoding.com/sketch -->
    <title>Group 28</title>
    <desc>Created with Sketch.</desc>
    <defs></defs>
    <g id="Logo-Grid" stroke="none" stroke-width="1" fill="none" fill-rule="evenodd">
        <g id="Group-28">
            <path d="M55.7354844,82.8477366 L50.3231543,77.2016461 C46.9452293,79.4293664 43.3754302,81.1193358 39.6136501,82.2716049 C35.8518699,83.4238741 32.0133763,84 28.0980541,84 C23.6453347,84 19.6724939,83.2894447 16.1794123,81.8683128 C12.6863307,80.4471808 9.74988313,78.5651695 7.36998141,76.2222222 C4.99007968,73.879275 3.16679522,71.2098915 1.90007333,68.2139918 C0.633351444,65.218092 0,62.107012 0,58.8806584 C0,56.4224843 0.345464424,54.1371848 1.03640364,52.0246914 C1.72734285,49.9121979 2.66777378,47.972574 3.85772464,46.2057613 C5.04767551,44.4389486 6.41034073,42.7873877 7.9457612,41.2510288 C9.48118167,39.71467 11.1317339,38.2935593 12.8974675,36.9876543 C11.515589,35.2976596 10.325656,33.7613238 9.32763272,32.3786008 C8.32960941,30.9958779 7.52352576,29.6323798 6.90935757,28.2880658 C6.29518938,26.9437519 5.85376262,25.6378664 5.58506403,24.3703704 C5.31636545,23.1028743 5.18201818,21.7393763 5.18201818,20.2798354 C5.18201818,17.1302998 5.75779222,14.3072827 6.90935757,11.8106996 C8.06092292,9.31411646 9.67309023,7.18245053 11.7459079,5.41563786 C13.8187255,3.64882519 16.2753614,2.30453136 19.1158893,1.38271605 C21.9564171,0.460900741 25.027212,0 28.328366,0 C31.1688939,0 33.9709942,0.364879753 36.7347511,1.09465021 C39.4985079,1.82442066 41.9359514,2.97667251 44.0471545,4.55144033 C46.1583576,6.12620815 47.8664873,8.0850363 49.1715947,10.4279835 C50.4767021,12.7709308 51.129246,15.5555394 51.129246,18.781893 C51.129246,23.1605157 49.9776979,27.0205594 47.6745672,30.3621399 C45.3714365,33.7037204 42.3774115,36.7571878 38.6924024,39.5226337 L51.4747139,53.1193416 C52.4727372,50.8148033 53.2596284,48.2990534 53.8354111,45.5720165 C54.4111937,42.8449795 54.6990808,39.8683289 54.6990808,36.6419753 L69.6693555,36.6419753 C69.5925845,42.326503 68.9016556,47.4540238 67.5965482,52.0246914 C66.2914408,56.5953589 64.5257338,60.7242614 62.2993741,64.4115226 L79.9182359,82.8477366 L55.7354844,82.8477366 Z M30.675925,70.2137058 C34.207392,70.2137058 37.6620363,69.1766791 41.0399613,67.1025947 L24.802971,49.8186441 C22.8069244,51.3550029 21.233142,52.8913387 20.0815767,54.4276976 C18.9300113,55.9640564 18.3542373,57.6924342 18.3542373,59.6128828 C18.3542373,60.8419698 18.6229318,62.0902427 19.160329,63.3577387 C19.6977262,64.6252348 20.4846174,65.7582824 21.5210262,66.7569157 C22.557435,67.7555489 23.8433303,68.5813294 25.3787508,69.2342819 C26.9141713,69.8872344 28.6798783,70.2137058 30.675925,70.2137058 Z M23.5983051,19.2171654 C23.5983051,20.4462525 23.9821544,21.5793001 24.7498647,22.6163423 C25.5175749,23.6533846 26.8994326,25.1705162 28.8954792,27.1677827 C31.2753809,25.6314238 33.041088,24.2487216 34.1926534,23.0196345 C35.3442187,21.7905474 35.9199927,20.3310284 35.9199927,18.6410337 C35.9199927,16.951039 35.3826036,15.6067451 34.3078093,14.6081119 C33.233015,13.6094786 31.8127724,13.1101695 30.0470388,13.1101695 C28.0509922,13.1101695 26.4772098,13.6862954 25.3256445,14.8385646 C24.1740791,15.9908337 23.5983051,17.4503527 23.5983051,19.2171654 Z" id="Combined-Shape" fill="#FF7D63"></path>
            <g id="Group-23" transform="translate(46.000000, 24.000000)">
                <path d="M40,38 C48.2842712,38 55,32.1797017 55,25 L25,25 C25,32.1797017 31.7157288,38 40,38 Z" id="Oval-49-Copy" fill="#5070FF" transform="translate(40.000000, 31.500000) rotate(-180.000000) translate(-40.000000, -31.500000) "></path>
                <rect id="Rectangle-30" fill="#5070FF" x="25" y="52" width="30" height="8"></rect>
                <rect id="Rectangle-30-Copy-2" fill="#5070FF" x="23" y="40" width="34" height="2"></rect>
                <rect id="Rectangle-30-Copy-3" fill="#5070FF" x="23" y="44" width="34" height="6" rx="2"></rect>
                <circle id="Oval-25" fill="#FFFFFF" cx="28" cy="34" r="1"></circle>
                <circle id="Oval-25-Copy-2" fill="#FFFFFF" cx="32" cy="35" r="1"></circle>
                <circle id="Oval-25-Copy-3" fill="#FFFFFF" cx="33" cy="29" r="1"></circle>
                <circle id="Oval-25-Copy-4" fill="#FFFFFF" cx="40" cy="35" r="1"></circle>
                <circle id="Oval-25-Copy-8" fill="#FFFFFF" cx="40" cy="30" r="1"></circle>
                <circle id="Oval-25-Copy-9" fill="#FFFFFF" cx="44" cy="34" r="1"></circle>
                <circle id="Oval-25-Copy-9" fill="#FFFFFF" cx="52" cy="36" r="1"></circle>
                <circle id="Oval-25-Copy-9" fill="#FFFFFF" cx="35" cy="32" r="1"></circle>
                <circle id="Oval-25-Copy-9" fill="#FFFFFF" cx="46" cy="30" r="1"></circle>
                <circle id="Oval-25-Copy-10" fill="#FFFFFF" cx="50" cy="32" r="1"></circle>
                <path d="M14.4781777,1.77504731 C14.4781777,12.737343 20,22.0739827 20,31.676321 C20,41.2786593 18.4223365,43.8070316 18.4223365,54.8498082 C20.9097633,61.0340099 11,59.9222422 11,59.9222422 C10.9835737,59.924081 1.09229935,61.0288818 3.57766352,54.8498082 C3.57766352,43.8070316 2,41.2786593 2,31.676321 C2,22.0739827 7.5218223,12.737343 7.5218223,1.77504731 C7.5218223,-0.0882163507 11,0.000674410987 11,0.000674410987 C11.0000524,0.000673073009 14.4781777,-0.0882023267 14.4781777,1.77504731 L14.4781777,1.77504731 Z M13.4999999,5.00000001 C13.8656929,13.3714247 16,17.3379601 16,20 L10.5,20 L6,20 C6,17.3379601 8.13430713,13.3714247 8.50000009,5.00000001 C8.50000009,5 9.40000002,5 10.12,5 L10,5.00000001 C10,5.00000001 13.4999999,4.99999999 13.4999999,5.00000001 Z" id="Combined-Shape" fill="#5070FF"></path>
                <path d="M0.595472929,35.3641506 C0.595472929,35.3641506 3.97693826,33.3339396 7.18072607,37.2050177 C10.3845139,41.0760959 13.2642204,42.693072 15.8455471,42.1075407 C18.4268739,41.5220094 22.7702921,37.7216994 22.7702921,37.7216994 C22.7702921,37.7216994 18.9745043,40.7821292 15.0526934,38.2721119 C11.1308825,35.7620947 11.8820371,34.0188769 8.03291255,32.5413361 C4.18378798,31.0637953 0.595472929,35.3641506 0.595472929,35.3641506 L0.595472929,35.3641506 Z" id="Path-319-Copy" fill="#FFFFFF"></path>
            </g>
        </g>
    </g>
</svg>