<?xml version="1.0" encoding="UTF-8" standalone="no"?>
<svg width="384px" height="180px" viewBox="0 0 384 180" version="1.1" xmlns="http://www.w3.org/2000/svg" xmlns:xlink="http://www.w3.org/1999/xlink">
    <!-- Generator: Sketch 39.1 (31720) - http://www.bohemiancoding.com/sketch -->
    <title>Group 4 Copy</title>
    <desc>Created with Sketch.</desc>
    <defs></defs>
    <g id="Logo-Grid" stroke="none" stroke-width="1" fill="none" fill-rule="evenodd">
        <g id="Group-4-Copy" transform="translate(0.000000, 2.000000)">
            <polyline id="Path-41" stroke="#000000" stroke-width="3.2" points="16.008316 58.646113 16.008316 42.0861778 192.099791 0 368.191279 42.0861781 368.191279 58.646113"></polyline>
            <polyline id="Path-41-Copy" stroke="#000000" stroke-width="3.2" transform="translate(192.099797, 147.056088) rotate(-180.000000) translate(-192.099797, -147.056088) " points="16.008316 176.379145 16.008316 159.819209 192.099791 117.733032 368.191279 159.81921 368.191279 176.379145"></polyline>
            <path d="M21.9592812,100.64596 C20.8466721,101.759249 19.6682024,102.579555 18.4238369,103.106903 C17.1794715,103.63425 15.8253293,103.89792 14.3613699,103.89792 C12.3996643,103.89792 10.5477835,103.45847 8.80567177,102.579558 C7.06356008,101.700645 5.54106514,100.52878 4.23814128,99.0639257 C2.93521741,97.5990716 1.90314151,95.8925421 1.14188262,93.9442862 C0.380623735,91.9960302 0,89.9672377 0,87.8578478 C0,85.7191608 0.380623735,83.6976925 1.14188262,81.7933821 C1.90314151,79.8890718 2.95717647,78.2338115 4.30401912,76.8275515 C5.65086177,75.4212916 7.2319142,74.3080192 9.04722386,73.4877009 C10.8625335,72.6673826 12.8242097,72.2572296 14.9323112,72.2572296 C17.6845549,72.2572296 20.1000517,72.8651349 22.178874,74.0809638 C24.2576964,75.2967927 25.8094701,76.9593772 26.8342416,79.0687671 L21.4322585,83.1117442 C20.7881163,81.7054843 19.8585161,80.6141843 18.6434298,79.8378117 C17.4283435,79.061439 16.1181194,78.6732585 14.7127184,78.6732585 C13.6001093,78.6732585 12.5973121,78.9149558 11.7042969,79.3983576 C10.8112817,79.8817595 10.0353948,80.5555823 9.37661308,81.4198462 C8.71783135,82.2841101 8.21277293,83.2875201 7.86142268,84.4301063 C7.51007242,85.5726925 7.33439993,86.8031515 7.33439993,88.1215202 C7.33439993,89.469186 7.52471179,90.7142933 7.90534124,91.8568795 C8.28597068,92.9994657 8.81298816,93.9882274 9.48640949,94.8231942 C10.1598308,95.6581611 10.9649964,96.3100114 11.9019304,96.7787647 C12.8388644,97.247518 13.8636206,97.4818911 14.9762298,97.4818911 C16.2645141,97.4818911 17.4942215,97.1669522 18.665389,96.537065 C19.8365566,95.9071777 20.9345096,94.9477127 21.9592812,93.658641 L21.9592812,92.6039514 L15.9424382,92.6039514 L15.9424382,87.3744484 L27.9322057,87.3744484 L27.9322057,103.678193 L21.9592812,103.678193 L21.9592812,100.64596 Z M48.6185839,103.941865 C46.3933656,103.941865 44.3731319,103.487767 42.5578222,102.579558 C40.7425126,101.671348 39.1834192,100.47751 37.8804953,98.9980076 C36.5775715,97.5185049 35.5674546,95.8266238 34.8501145,93.9223135 C34.1327744,92.0180031 33.7741098,90.0551281 33.7741098,88.0336294 C33.7741098,85.9828337 34.1474138,84.0053103 34.8940331,82.1009999 C35.6406524,80.1966896 36.680048,78.5194568 38.012251,77.0692513 C39.3444541,75.6190457 40.9255065,74.4618283 42.7554558,73.5975644 C44.585405,72.7333005 46.5836796,72.301175 48.7503395,72.301175 C50.9755578,72.301175 52.9957915,72.7552729 54.8111012,73.6634825 C56.6264108,74.571692 58.1855042,75.7728544 59.4884281,77.2670056 C60.7913519,78.7611568 61.7941491,80.460362 62.4968496,82.3646724 C63.1995501,84.2689827 63.5508951,86.2025611 63.5508951,88.1654656 C63.5508951,90.2162614 63.177591,92.1937847 62.4309717,94.0980951 C61.6843524,96.0024054 60.6522766,97.6796382 59.3347131,99.1298438 C58.0171496,100.580049 56.4434169,101.744591 54.6134676,102.623503 C52.7835184,103.502416 50.7852438,103.941865 48.6185839,103.941865 L48.6185839,103.941865 Z M41.1085097,88.1215202 C41.1085097,89.3227006 41.2768625,90.4872421 41.6135731,91.6151798 C41.9502838,92.7431174 42.4333832,93.7465275 43.0628857,94.6254399 C43.6923883,95.5043524 44.4829145,96.2074718 45.4344881,96.7348193 C46.3860617,97.2621668 47.4766951,97.5258365 48.706421,97.5258365 C49.9654261,97.5258365 51.0633791,97.2475184 52.0003132,96.6908739 C52.9372472,96.1342293 53.7204537,95.4091374 54.3499563,94.5155764 C54.9794588,93.6220154 55.4479188,92.6112812 55.7553503,91.4833436 C56.0627817,90.3554059 56.2164952,89.2055127 56.2164952,88.0336294 C56.2164952,86.832449 56.0481424,85.6679075 55.7114317,84.5399698 C55.374721,83.4120322 54.884302,82.4159463 54.2401598,81.5516824 C53.5960177,80.6874185 52.8054915,79.9989474 51.8685575,79.4862484 C50.9316235,78.9735495 49.8629491,78.7172039 48.6625024,78.7172039 C47.4034973,78.7172039 46.3055443,78.9881978 45.3686102,79.5301938 C44.4316762,80.0721899 43.6484697,80.7826334 43.0189671,81.6615459 C42.3894646,82.5404584 41.9136849,83.5438684 41.5916139,84.671806 C41.2695428,85.7997437 41.1085097,86.9496369 41.1085097,88.1215202 L41.1085097,88.1215202 Z M83.6663319,103.941865 C81.4411136,103.941865 79.42088,103.487767 77.6055703,102.579558 C75.7902606,101.671348 74.2311673,100.47751 72.9282434,98.9980076 C71.6253195,97.5185049 70.6152027,95.8266238 69.8978626,93.9223135 C69.1805225,92.0180031 68.8218578,90.0551281 68.8218578,88.0336294 C68.8218578,85.9828337 69.1951619,84.0053103 69.9417812,82.1009999 C70.6884005,80.1966896 71.727796,78.5194568 73.0599991,77.0692513 C74.3922021,75.6190457 75.9732546,74.4618283 77.8032038,73.5975644 C79.6331531,72.7333005 81.6314277,72.301175 83.7980876,72.301175 C86.0233059,72.301175 88.0435396,72.7552729 89.8588492,73.6634825 C91.6741589,74.571692 93.2332523,75.7728544 94.5361761,77.2670056 C95.8391,78.7611568 96.8418971,80.460362 97.5445977,82.3646724 C98.2472982,84.2689827 98.5986432,86.2025611 98.5986432,88.1654656 C98.5986432,90.2162614 98.2253391,92.1937847 97.4787198,94.0980951 C96.7321005,96.0024054 95.7000246,97.6796382 94.3824612,99.1298438 C93.0648977,100.580049 91.4911649,101.744591 89.6612157,102.623503 C87.8312664,103.502416 85.8329918,103.941865 83.6663319,103.941865 L83.6663319,103.941865 Z M76.1562577,88.1215202 C76.1562577,89.3227006 76.3246106,90.4872421 76.6613212,91.6151798 C76.9980319,92.7431174 77.4811312,93.7465275 78.1106338,94.6254399 C78.7401363,95.5043524 79.5306625,96.2074718 80.4822361,96.7348193 C81.4338098,97.2621668 82.5244431,97.5258365 83.754169,97.5258365 C85.0131741,97.5258365 86.1111272,97.2475184 87.0480612,96.6908739 C87.9849952,96.1342293 88.7682018,95.4091374 89.3977043,94.5155764 C90.0272069,93.6220154 90.4956668,92.6112812 90.8030983,91.4833436 C91.1105298,90.3554059 91.2642432,89.2055127 91.2642432,88.0336294 C91.2642432,86.832449 91.0958904,85.6679075 90.7591798,84.5399698 C90.4224691,83.4120322 89.93205,82.4159463 89.2879079,81.5516824 C88.6437658,80.6874185 87.8532396,79.9989474 86.9163055,79.4862484 C85.9793715,78.9735495 84.9106972,78.7172039 83.7102505,78.7172039 C82.4512454,78.7172039 81.3532923,78.9881978 80.4163583,79.5301938 C79.4794243,80.0721899 78.6962178,80.7826334 78.0667152,81.6615459 C77.4372127,82.5404584 76.961433,83.5438684 76.6393619,84.671806 C76.3172909,85.7997437 76.1562577,86.9496369 76.1562577,88.1215202 L76.1562577,88.1215202 Z M105.626348,103.678193 L105.626348,72.4769566 L117.264767,72.4769566 C119.841336,72.4769566 122.0958,72.8871096 124.028226,73.7074279 C125.960652,74.5277462 127.578303,75.6410186 128.881227,77.0472786 C130.184151,78.4535385 131.164989,80.1014746 131.823771,81.9911364 C132.482553,83.8807982 132.811939,85.8949424 132.811939,88.0336294 C132.811939,90.4066931 132.445954,92.5526721 131.713974,94.471631 C130.981995,96.3905899 129.935279,98.0312019 128.573797,99.3935162 C127.212315,100.755831 125.572705,101.81051 123.654918,102.557585 C121.737131,103.304661 119.607102,103.678193 117.264767,103.678193 L105.626348,103.678193 Z M125.477539,88.0336294 C125.477539,86.6566665 125.294546,85.4042351 124.928557,84.2762974 C124.562567,83.1483598 124.02823,82.1742464 123.325529,81.3539281 C122.622829,80.5336098 121.759105,79.903732 120.734334,79.4642757 C119.709562,79.0248195 118.553052,78.8050947 117.264767,78.8050947 L112.828993,78.8050947 L112.828993,97.3500549 L117.264767,97.3500549 C118.582331,97.3500549 119.753481,97.1156818 120.778252,96.6469285 C121.803024,96.1781752 122.659427,95.5263249 123.347488,94.691358 C124.035549,93.8563912 124.562567,92.8749537 124.928557,91.747016 C125.294546,90.6190783 125.477539,89.3812952 125.477539,88.0336294 L125.477539,88.0336294 Z M172.911057,103.678193 L170.846884,101.524868 C169.5586,102.374484 168.197138,103.01901 166.762458,103.458466 C165.327778,103.897922 163.86384,104.117647 162.370602,104.117647 C160.672409,104.117647 159.157233,103.846653 157.82503,103.304657 C156.492827,102.762661 155.372915,102.044893 154.46526,101.151332 C153.557605,100.257771 152.862235,99.239713 152.379129,98.0971268 C151.896022,96.9545406 151.654472,95.7680266 151.654472,94.5375491 C151.654472,93.6000425 151.786227,92.7284674 152.049739,91.9227976 C152.313252,91.1171279 152.671917,90.3773876 153.125744,89.7035547 C153.579572,89.0297218 154.099269,88.399844 154.684853,87.8139024 C155.270437,87.2279607 155.89993,86.6859729 156.573351,86.1879225 C156.046326,85.5433867 155.592505,84.9574538 155.211876,84.4301063 C154.831246,83.9027588 154.52382,83.3827434 154.289586,82.8700445 C154.055353,82.3573456 153.887,81.8593026 153.784523,81.3759008 C153.682045,80.8924989 153.630808,80.3724835 153.630808,79.815839 C153.630808,78.6146586 153.850398,77.538007 154.289586,76.5858518 C154.728774,75.6336966 155.343628,74.8207148 156.134166,74.1468819 C156.924704,73.473049 157.861624,72.9603578 158.944954,72.6087928 C160.028284,72.2572278 161.199434,72.081448 162.458439,72.081448 C163.541769,72.081448 164.610443,72.220607 165.664494,72.4989293 C166.718544,72.7772516 167.648145,73.2167012 168.453322,73.8172914 C169.2585,74.4178816 169.909952,75.164946 170.407698,76.058507 C170.905445,76.952068 171.154314,78.0140713 171.154314,79.2445487 C171.154314,80.9144824 170.715133,82.3866387 169.836757,83.6610618 C168.958382,84.9354848 167.81651,86.1000264 166.411109,87.1547213 L171.28607,92.3402789 C171.666699,91.4613665 171.966806,90.5019014 172.1864,89.461855 C172.405994,88.4218086 172.515789,87.2865637 172.515789,86.0560863 L178.225203,86.0560863 C178.195923,88.2240703 177.932415,90.1796212 177.434668,91.9227976 C176.936922,93.665974 176.263511,95.2406685 175.414415,96.6469285 L182.133955,103.678193 L172.911057,103.678193 Z M163.117217,98.6244716 C164.46406,98.6244716 165.781603,98.228967 167.069888,97.4379457 L160.87737,90.8461352 C160.116112,91.4320769 159.515897,92.0180097 159.076709,92.6039514 C158.637522,93.189893 158.417931,93.8490675 158.417931,94.5814945 C158.417931,95.0502478 158.520407,95.5263183 158.725361,96.0097201 C158.930315,96.493122 159.230422,96.9252475 159.625691,97.3061095 C160.02096,97.6869716 160.511379,98.0019105 161.096963,98.2509357 C161.682547,98.4999609 162.355958,98.6244716 163.117217,98.6244716 L163.117217,98.6244716 Z M159.998999,79.5521665 C159.998999,80.0209199 160.145393,80.4530453 160.438185,80.8485559 C160.730977,81.2440666 161.257994,81.8226752 162.019253,82.5843994 C162.926908,81.9984577 163.600319,81.4711182 164.039507,81.0023649 C164.478695,80.5336115 164.698285,79.9769753 164.698285,79.3324395 C164.698285,78.6879037 164.493334,78.1752125 164.083425,77.7943504 C163.673517,77.4134883 163.13186,77.2230602 162.458439,77.2230602 C161.69718,77.2230602 161.096965,77.442785 160.657778,77.8822412 C160.21859,78.3216974 159.998999,78.8783337 159.998999,79.5521665 L159.998999,79.5521665 Z M201.020407,103.678193 L201.020407,72.4769566 L214.327731,72.4769566 C215.82097,72.4769566 217.189751,72.7845713 218.434117,73.3998101 C219.678482,74.0150488 220.747157,74.8207065 221.640172,75.8168073 C222.533187,76.812908 223.235877,77.9408288 223.748263,79.2006033 C224.260649,80.4603778 224.516838,81.7347818 224.516838,83.0238534 C224.516838,84.4008163 224.275288,85.7191652 223.792182,86.9789397 C223.309075,88.2387143 222.635664,89.366635 221.771928,90.3627358 C220.908192,91.3588366 219.861476,92.1498459 218.63175,92.7357876 C217.402025,93.3217292 216.040563,93.6146956 214.547324,93.6146956 L208.223051,93.6146956 L208.223051,103.678193 L201.020407,103.678193 Z M208.223051,87.330503 L214.108139,87.330503 C214.957235,87.330503 215.689204,86.9642949 216.304067,86.2318679 C216.91893,85.4994408 217.226356,84.4301134 217.226356,83.0238534 C217.226356,82.2914264 217.131201,81.6615485 216.940886,81.1342011 C216.750571,80.6068536 216.494382,80.167404 216.172311,79.815839 C215.85024,79.464274 215.484256,79.2079284 215.074347,79.0467944 C214.664438,78.8856605 214.254536,78.8050947 213.844627,78.8050947 L208.223051,78.8050947 L208.223051,87.330503 Z M231.061439,103.678193 L231.061439,72.4769566 L245.115379,72.4769566 C246.579338,72.4769566 247.93348,72.7845713 249.177846,73.3998101 C250.422211,74.0150488 251.498205,74.8207065 252.40586,75.8168073 C253.313515,76.812908 254.023525,77.9408288 254.535911,79.2006033 C255.048296,80.4603778 255.304485,81.7347818 255.304485,83.0238534 C255.304485,83.9906571 255.18737,84.9208255 254.953137,85.8143865 C254.718903,86.7079475 254.382198,87.550226 253.94301,88.3412472 C253.503822,89.1322684 252.969485,89.842712 252.339982,90.4725993 C251.71048,91.1024866 251.00047,91.6371503 250.209932,92.0766065 L257.368658,103.678193 L249.243724,103.678193 L242.963369,93.6146956 L238.264083,93.6146956 L238.264083,103.678193 L231.061439,103.678193 Z M238.264083,87.330503 L244.851868,87.330503 C245.700964,87.330503 246.432933,86.9276741 247.047796,86.1220044 C247.662659,85.3163346 247.970085,84.2836279 247.970085,83.0238534 C247.970085,81.7347818 247.61874,80.7093993 246.91604,79.9476752 C246.213339,79.185951 245.452092,78.8050947 244.632275,78.8050947 L238.264083,78.8050947 L238.264083,87.330503 Z M276.386131,103.941865 C274.160912,103.941865 272.140679,103.487767 270.325369,102.579558 C268.510059,101.671348 266.950966,100.47751 265.648042,98.9980076 C264.345118,97.5185049 263.335001,95.8266238 262.617661,93.9223135 C261.900321,92.0180031 261.541656,90.0551281 261.541656,88.0336294 C261.541656,85.9828337 261.914961,84.0053103 262.66158,82.1009999 C263.408199,80.1966896 264.447595,78.5194568 265.779798,77.0692513 C267.112001,75.6190457 268.693053,74.4618283 270.523002,73.5975644 C272.352952,72.7333005 274.351226,72.301175 276.517886,72.301175 C278.743105,72.301175 280.763338,72.7552729 282.578648,73.6634825 C284.393958,74.571692 285.953051,75.7728544 287.255975,77.2670056 C288.558899,78.7611568 289.561696,80.460362 290.264396,82.3646724 C290.967097,84.2689827 291.318442,86.2025611 291.318442,88.1654656 C291.318442,90.2162614 290.945138,92.1937847 290.198518,94.0980951 C289.451899,96.0024054 288.419823,97.6796382 287.10226,99.1298438 C285.784696,100.580049 284.210964,101.744591 282.381014,102.623503 C280.551065,103.502416 278.55279,103.941865 276.386131,103.941865 L276.386131,103.941865 Z M268.876056,88.1215202 C268.876056,89.3227006 269.044409,90.4872421 269.38112,91.6151798 C269.717831,92.7431174 270.20093,93.7465275 270.830432,94.6254399 C271.459935,95.5043524 272.250461,96.2074718 273.202035,96.7348193 C274.153608,97.2621668 275.244242,97.5258365 276.473968,97.5258365 C277.732973,97.5258365 278.830926,97.2475184 279.76786,96.6908739 C280.704794,96.1342293 281.488,95.4091374 282.117503,94.5155764 C282.747006,93.6220154 283.215465,92.6112812 283.522897,91.4833436 C283.830328,90.3554059 283.984042,89.2055127 283.984042,88.0336294 C283.984042,86.832449 283.815689,85.6679075 283.478978,84.5399698 C283.142268,83.4120322 282.651849,82.4159463 282.007707,81.5516824 C281.363564,80.6874185 280.573038,79.9989474 279.636104,79.4862484 C278.69917,78.9735495 277.630496,78.7172039 276.430049,78.7172039 C275.171044,78.7172039 274.073091,78.9881978 273.136157,79.5301938 C272.199223,80.0721899 271.416016,80.7826334 270.786514,81.6615459 C270.157011,82.5404584 269.681232,83.5438684 269.359161,84.671806 C269.03709,85.7997437 268.876056,86.9496369 268.876056,88.1215202 L268.876056,88.1215202 Z M298.346147,103.678193 L298.346147,72.4769566 L311.653471,72.4769566 C313.14671,72.4769566 314.515492,72.7845713 315.759857,73.3998101 C317.004223,74.0150488 318.072897,74.8207065 318.965912,75.8168073 C319.858927,76.812908 320.561617,77.9408288 321.074003,79.2006033 C321.586389,80.4603778 321.842578,81.7347818 321.842578,83.0238534 C321.842578,84.4008163 321.601028,85.7191652 321.117922,86.9789397 C320.634815,88.2387143 319.961404,89.366635 319.097668,90.3627358 C318.233932,91.3588366 317.187216,92.1498459 315.957491,92.7357876 C314.727765,93.3217292 313.366303,93.6146956 311.873064,93.6146956 L305.548791,93.6146956 L305.548791,103.678193 L298.346147,103.678193 Z M305.548791,87.330503 L311.433879,87.330503 C312.282975,87.330503 313.014944,86.9642949 313.629807,86.2318679 C314.24467,85.4994408 314.552097,84.4301134 314.552097,83.0238534 C314.552097,82.2914264 314.456941,81.6615485 314.266626,81.1342011 C314.076311,80.6068536 313.820122,80.167404 313.498051,79.815839 C313.17598,79.464274 312.809996,79.2079284 312.400087,79.0467944 C311.990178,78.8856605 311.580276,78.8050947 311.170367,78.8050947 L305.548791,78.8050947 L305.548791,87.330503 Z M350.302542,97.3500549 L350.302542,103.678193 L328.387179,103.678193 L328.387179,72.4769566 L349.907275,72.4769566 L349.907275,78.8050947 L335.589823,78.8050947 L335.589823,84.8695604 L347.887021,84.8695604 L347.887021,90.714299 L335.589823,90.714299 L335.589823,97.3500549 L350.302542,97.3500549 Z M357.593758,103.678193 L357.593758,72.4769566 L371.647698,72.4769566 C373.111658,72.4769566 374.4658,72.7845713 375.710165,73.3998101 C376.954531,74.0150488 378.030525,74.8207065 378.93818,75.8168073 C379.845834,76.812908 380.555844,77.9408288 381.06823,79.2006033 C381.580616,80.4603778 381.836805,81.7347818 381.836805,83.0238534 C381.836805,83.9906571 381.71969,84.9208255 381.485456,85.8143865 C381.251223,86.7079475 380.914517,87.550226 380.475329,88.3412472 C380.036141,89.1322684 379.501804,89.842712 378.872302,90.4725993 C378.242799,91.1024866 377.53279,91.6371503 376.742251,92.0766065 L383.900977,103.678193 L375.776043,103.678193 L369.495689,93.6146956 L364.796402,93.6146956 L364.796402,103.678193 L357.593758,103.678193 Z M364.796402,87.330503 L371.384187,87.330503 C372.233283,87.330503 372.965252,86.9276741 373.580115,86.1220044 C374.194978,85.3163346 374.502405,84.2836279 374.502405,83.0238534 C374.502405,81.7347818 374.15106,80.7093993 373.448359,79.9476752 C372.745659,79.185951 371.984411,78.8050947 371.164594,78.8050947 L364.796402,78.8050947 L364.796402,87.330503 Z" id="GOOD-&amp;-PROPER-Copy-29" fill="#000000"></path>
            <g id="Group-2-Copy-26" transform="translate(160.883576, 27.230769)" fill="#000000">
                <g id="Group" transform="translate(0.820939, 0.000000)">
                    <path d="M14.7187116,27.9289941 C14.7570634,27.660709 14.7769071,27.3864498 14.7769071,27.1075531 C14.7769071,23.9318677 12.2040778,21.3574661 9.03033211,21.3574661 C5.85658638,21.3574661 3.28375713,23.9318677 3.28375713,27.1075531 C3.28375713,27.3864498 3.30360084,27.660709 3.34195258,27.9289941 L-2.12207831e-26,27.9289941 L2.83723173e-10,15.717942 L5.77571836,13.1301349 L7.94198544,1.62323018 C8.08967046,0.726744905 8.94323028,4.08106082e-14 9.85527881,4.08106082e-14 L12.3140892,4.08106082e-14 L60.7495069,4.08106082e-14 L60.7495069,27.9289941 L50.8400401,27.9289941 C50.8783918,27.660709 50.8982355,27.3864498 50.8982355,27.1075531 C50.8982355,23.9318677 48.3254063,21.3574661 45.1516605,21.3574661 C41.9779148,21.3574661 39.4050856,23.9318677 39.4050856,27.1075531 C39.4050856,27.3864498 39.4249293,27.660709 39.463281,27.9289941 L14.7187116,27.9289941 Z M9.71968501,4.8972058 C9.79235816,4.46090041 10.2043695,4.10720501 10.6565776,4.10720501 L15.6134795,4.10720501 C16.0582378,4.10720501 16.4187856,4.45803125 16.4187856,4.91386859 L16.4187856,13.1578335 C16.4187856,13.6033415 16.0660383,13.964497 15.6166872,13.964497 L9.01149124,13.964497 C8.56850452,13.964497 8.26782815,13.6136708 8.3409792,13.1744963 L9.71968501,4.8972058 Z" id="Combined-Shape"></path>
                    <path d="M9.03033211,32.0361991 C11.7506856,32.0361991 13.9559678,29.8295691 13.9559678,27.1075531 C13.9559678,24.385537 11.7506856,22.1789071 9.03033211,22.1789071 C6.30997863,22.1789071 4.10469641,24.385537 4.10469641,27.1075531 C4.10469641,29.8295691 6.30997863,32.0361991 9.03033211,32.0361991 Z M9.03033211,29.5718761 C10.3905088,29.5718761 11.49315,28.4685611 11.49315,27.1075531 C11.49315,25.7465451 10.3905088,24.6432301 9.03033211,24.6432301 C7.67015537,24.6432301 6.56751426,25.7465451 6.56751426,27.1075531 C6.56751426,28.4685611 7.67015537,29.5718761 9.03033211,29.5718761 Z" id="Combined-Shape"></path>
                    <path d="M45.1516605,32.0361991 C47.872014,32.0361991 50.0772962,29.8295691 50.0772962,27.1075531 C50.0772962,24.385537 47.872014,22.1789071 45.1516605,22.1789071 C42.4313071,22.1789071 40.2260248,24.385537 40.2260248,27.1075531 C40.2260248,29.8295691 42.4313071,32.0361991 45.1516605,32.0361991 Z M45.1516605,29.5718761 C46.5118373,29.5718761 47.6144784,28.4685611 47.6144784,27.1075531 C47.6144784,25.7465451 46.5118373,24.6432301 45.1516605,24.6432301 C43.7914838,24.6432301 42.6888427,25.7465451 42.6888427,27.1075531 C42.6888427,28.4685611 43.7914838,29.5718761 45.1516605,29.5718761 Z" id="Combined-Shape"></path>
                </g>
                <rect id="Rectangle-20" x="52.5401141" y="23.8217891" width="10.6722107" height="4.10720501"></rect>
                <rect id="Rectangle-20-Copy-2" x="0" y="25.4646711" width="3.28375713" height="2.46432301"></rect>
                <rect id="Rectangle-20-Copy-3" x="7.38845354" y="0" width="3.28375713" height="2.46432301"></rect>
            </g>
            <path d="M76.8399168,132.716362 L76.8399168,120.206226 L85.327526,120.206226 L85.327526,122.743493 L79.727817,122.743493 L79.727817,125.439339 L84.3414137,125.439339 L84.3414137,127.782787 L79.727817,127.782787 L79.727817,132.716362 L76.8399168,132.716362 Z M95.0269647,132.822081 C94.1347634,132.822081 93.3247507,132.640011 92.5969023,132.275864 C91.8690539,131.911718 91.2439354,131.433048 90.7215281,130.839842 C90.1991207,130.246635 89.7941144,129.568275 89.5064969,128.804742 C89.2188794,128.041209 89.0750728,127.254194 89.0750728,126.443674 C89.0750728,125.621408 89.224749,124.82852 89.524106,124.064986 C89.823463,123.301453 90.2402087,122.628967 90.7743555,122.047507 C91.3085023,121.466047 91.9424253,121.002061 92.6761435,120.655534 C93.4098616,120.309007 94.2110698,120.135747 95.0797921,120.135747 C95.9719934,120.135747 96.7820061,120.317817 97.5098545,120.681964 C98.2377029,121.04611 98.8628214,121.527716 99.3852287,122.126796 C99.907636,122.725876 100.309708,123.407173 100.591455,124.170706 C100.873203,124.934239 101.014075,125.709507 101.014075,126.496534 C101.014075,127.3188 100.864399,128.111688 100.565042,128.875222 C100.265685,129.638755 99.8518737,130.311241 99.3235967,130.892701 C98.7953196,131.474161 98.1643315,131.941084 97.4306133,132.293484 C96.6968952,132.645884 95.8956869,132.822081 95.0269647,132.822081 L95.0269647,132.822081 Z M92.0158004,126.478914 C92.0158004,126.960527 92.0833015,127.42745 92.2183056,127.879697 C92.3533098,128.331943 92.5470084,128.734261 92.7994075,129.086661 C93.0518065,129.439061 93.368768,129.720976 93.7503015,129.932416 C94.1318349,130.143856 94.5691244,130.249575 95.062183,130.249575 C95.566981,130.249575 96.0072053,130.137983 96.382869,129.914796 C96.7585327,129.69161 97.0725594,129.400884 97.3249584,129.042611 C97.5773575,128.684338 97.7651865,128.279084 97.8884511,127.826837 C98.0117158,127.37459 98.0733472,126.913541 98.0733472,126.443674 C98.0733472,125.962061 98.0058461,125.495138 97.870842,125.042891 C97.7358379,124.590645 97.5392043,124.191264 97.2809356,123.844738 C97.0226668,123.498211 96.7057053,123.222168 96.3300416,123.016602 C95.9543779,122.811035 95.5258929,122.708253 95.0445738,122.708253 C94.5397757,122.708253 94.0995514,122.816908 93.7238877,123.034222 C93.348224,123.251535 93.0341974,123.536387 92.7817983,123.888787 C92.5293993,124.241187 92.3386354,124.643505 92.209501,125.095751 C92.0803666,125.547998 92.0158004,126.009047 92.0158004,126.478914 L92.0158004,126.478914 Z M111.153742,132.822081 C110.261541,132.822081 109.451528,132.640011 108.72368,132.275864 C107.995831,131.911718 107.370713,131.433048 106.848306,130.839842 C106.325898,130.246635 105.920892,129.568275 105.633274,128.804742 C105.345657,128.041209 105.20185,127.254194 105.20185,126.443674 C105.20185,125.621408 105.351527,124.82852 105.650884,124.064986 C105.950241,123.301453 106.366986,122.628967 106.901133,122.047507 C107.43528,121.466047 108.069203,121.002061 108.802921,120.655534 C109.536639,120.309007 110.337847,120.135747 111.20657,120.135747 C112.098771,120.135747 112.908784,120.317817 113.636632,120.681964 C114.36448,121.04611 114.989599,121.527716 115.512006,122.126796 C116.034414,122.725876 116.436485,123.407173 116.718233,124.170706 C116.999981,124.934239 117.140852,125.709507 117.140852,126.496534 C117.140852,127.3188 116.991176,128.111688 116.691819,128.875222 C116.392462,129.638755 115.978651,130.311241 115.450374,130.892701 C114.922097,131.474161 114.291109,131.941084 113.557391,132.293484 C112.823673,132.645884 112.022464,132.822081 111.153742,132.822081 L111.153742,132.822081 Z M108.142578,126.478914 C108.142578,126.960527 108.210079,127.42745 108.345083,127.879697 C108.480087,128.331943 108.673786,128.734261 108.926185,129.086661 C109.178584,129.439061 109.495546,129.720976 109.877079,129.932416 C110.258612,130.143856 110.695902,130.249575 111.18896,130.249575 C111.693759,130.249575 112.133983,130.137983 112.509647,129.914796 C112.88531,129.69161 113.199337,129.400884 113.451736,129.042611 C113.704135,128.684338 113.891964,128.279084 114.015229,127.826837 C114.138493,127.37459 114.200125,126.913541 114.200125,126.443674 C114.200125,125.962061 114.132624,125.495138 113.99762,125.042891 C113.862615,124.590645 113.665982,124.191264 113.407713,123.844738 C113.149444,123.498211 112.832483,123.222168 112.456819,123.016602 C112.081155,122.811035 111.65267,122.708253 111.171351,122.708253 C110.666553,122.708253 110.226329,122.816908 109.850665,123.034222 C109.475002,123.251535 109.160975,123.536387 108.908576,123.888787 C108.656177,124.241187 108.465413,124.643505 108.336279,125.095751 C108.207144,125.547998 108.142578,126.009047 108.142578,126.478914 L108.142578,126.478914 Z M122.032994,132.716362 L122.032994,120.206226 L126.699418,120.206226 C127.732493,120.206226 128.63642,120.370677 129.411227,120.699584 C130.186033,121.02849 130.83463,121.474857 131.357037,122.038697 C131.879445,122.602537 132.272712,123.263277 132.53685,124.020937 C132.800989,124.778597 132.933056,125.586168 132.933056,126.443674 C132.933056,127.395154 132.786315,128.255584 132.492827,129.024991 C132.19934,129.794398 131.77966,130.452201 131.233773,130.998421 C130.687887,131.544641 130.030485,131.967514 129.261549,132.267054 C128.492612,132.566594 127.638577,132.716362 126.699418,132.716362 L122.032994,132.716362 Z M129.992328,126.443674 C129.992328,125.891581 129.918958,125.389419 129.772214,124.937172 C129.625471,124.484925 129.411228,124.094355 129.12948,123.765448 C128.847732,123.436541 128.501423,123.183992 128.090541,123.007792 C127.679658,122.831592 127.215955,122.743493 126.699418,122.743493 L124.920894,122.743493 L124.920894,130.179095 L126.699418,130.179095 C127.227695,130.179095 127.697268,130.085123 128.10815,129.897176 C128.519032,129.70923 128.862407,129.44787 129.138285,129.11309 C129.414163,128.778311 129.625471,128.384803 129.772214,127.932557 C129.918958,127.48031 129.992328,126.984021 129.992328,126.443674 L129.992328,126.443674 Z M154.198503,122.743493 L150.394927,122.743493 L150.394927,132.716362 L147.507027,132.716362 L147.507027,122.743493 L143.685842,122.743493 L143.685842,120.206226 L154.198503,120.206226 L154.198503,122.743493 Z M158.826507,132.716362 L158.826507,120.206226 L164.461435,120.206226 C165.048409,120.206226 165.591352,120.329564 166.090281,120.576244 C166.589209,120.822924 167.020629,121.145953 167.384553,121.545339 C167.748477,121.944726 168.033156,122.396966 168.238597,122.902072 C168.444038,123.407179 168.546757,123.918151 168.546757,124.435005 C168.546757,124.822644 168.499799,125.195595 168.405884,125.553869 C168.311968,125.912142 168.176966,126.249854 168.000873,126.567014 C167.824781,126.884174 167.610538,127.169026 167.358139,127.421579 C167.10574,127.674132 166.821062,127.888506 166.504096,128.064706 L169.374387,132.716362 L166.116694,132.716362 L163.598586,128.681403 L161.714407,128.681403 L161.714407,132.716362 L158.826507,132.716362 Z M161.714407,126.161756 L164.35578,126.161756 C164.696225,126.161756 164.989708,126.000241 165.236237,125.677208 C165.482766,125.354175 165.606029,124.940111 165.606029,124.435005 C165.606029,123.918151 165.465157,123.507024 165.18341,123.201611 C164.901662,122.896198 164.59644,122.743493 164.267734,122.743493 L161.714407,122.743493 L161.714407,126.161756 Z M179.214699,130.249575 C179.707757,130.249575 180.124503,130.146793 180.464948,129.941226 C180.805393,129.73566 181.081267,129.462554 181.292578,129.1219 C181.503889,128.781247 181.653565,128.390676 181.741611,127.950176 C181.829657,127.509677 181.87368,127.060373 181.87368,126.602253 L181.87368,120.206226 L184.76158,120.206226 L184.76158,126.602253 C184.76158,127.471507 184.652991,128.282014 184.435811,129.033801 C184.21863,129.785587 183.88406,130.443391 183.432089,131.007231 C182.980119,131.571071 182.404893,132.014501 181.706393,132.337534 C181.007893,132.660567 180.177337,132.822081 179.214699,132.822081 C178.216842,132.822081 177.365742,132.651757 176.661372,132.311104 C175.957003,131.970451 175.384711,131.515274 174.94448,130.945561 C174.504249,130.375848 174.181418,129.715108 173.975977,128.963321 C173.770536,128.211535 173.667817,127.42452 173.667817,126.602253 L173.667817,120.206226 L176.555717,120.206226 L176.555717,126.602253 C176.555717,127.083867 176.602675,127.54198 176.69659,127.976606 C176.790506,128.411233 176.943117,128.798867 177.154428,129.13952 C177.365739,129.480174 177.638678,129.750343 177.973254,129.950036 C178.307829,130.14973 178.72164,130.249575 179.214699,130.249575 L179.214699,130.249575 Z M189.460021,126.355575 C189.460021,125.603788 189.595023,124.854949 189.865031,124.109036 C190.135039,123.363123 190.528306,122.69651 191.044844,122.109176 C191.561382,121.521843 192.19237,121.04611 192.937827,120.681964 C193.683285,120.317817 194.531451,120.135747 195.482349,120.135747 C196.597601,120.135747 197.566094,120.388296 198.387859,120.893403 C199.209623,121.398509 199.820067,122.056313 200.21921,122.866833 L198.000457,124.417385 C197.871323,124.088478 197.706973,123.815372 197.507401,123.598059 C197.30783,123.380746 197.090653,123.204548 196.855863,123.069462 C196.621073,122.934375 196.377482,122.840403 196.125083,122.787543 C195.872684,122.734683 195.634963,122.708253 195.411913,122.708253 C194.895375,122.708253 194.449281,122.819845 194.073617,123.043032 C193.697954,123.266218 193.386862,123.554007 193.140333,123.906407 C192.893803,124.258807 192.708909,124.658188 192.585644,125.104561 C192.46238,125.550934 192.400748,126.003174 192.400748,126.461294 C192.400748,126.954654 192.474119,127.430387 192.620863,127.888507 C192.767606,128.346627 192.973044,128.751881 193.237183,129.104281 C193.501321,129.45668 193.821218,129.73566 194.196881,129.941226 C194.572545,130.146793 194.989291,130.249575 195.447131,130.249575 C195.681921,130.249575 195.925512,130.217272 196.177911,130.152665 C196.43031,130.088059 196.6739,129.988213 196.90869,129.853127 C197.14348,129.71804 197.354788,129.541843 197.54262,129.324529 C197.730451,129.107216 197.883062,128.839983 198.000457,128.522824 L200.377692,129.914796 C200.18986,130.372916 199.916921,130.784043 199.558867,131.14819 C199.200812,131.512337 198.792871,131.817745 198.335031,132.064425 C197.877191,132.311105 197.392944,132.499049 196.882277,132.628262 C196.371609,132.757476 195.869753,132.822081 195.376694,132.822081 C194.507972,132.822081 193.712634,132.637074 192.990655,132.267054 C192.268676,131.897034 191.646493,131.406618 191.124085,130.795792 C190.601678,130.184965 190.193737,129.491922 189.900249,128.716643 C189.606762,127.941363 189.460021,127.154348 189.460021,126.355575 L189.460021,126.355575 Z M205.058524,132.716362 L205.058524,120.206226 L207.946424,120.206226 L207.946424,125.844597 L212.771331,120.206226 L215.764886,120.206226 L211.080852,125.791738 L216.08185,132.716362 L213.035468,132.716362 L209.372765,127.412769 L207.946424,128.963321 L207.946424,132.716362 L205.058524,132.716362 Z M236.06183,130.179095 L236.06183,132.716362 L227.274865,132.716362 L227.274865,120.206226 L235.903347,120.206226 L235.903347,122.743493 L230.162765,122.743493 L230.162765,125.175041 L235.093326,125.175041 L235.093326,127.518489 L230.162765,127.518489 L230.162765,130.179095 L236.06183,130.179095 Z M239.826985,132.716362 L244.634283,120.206226 L246.976299,120.206226 L251.765988,132.716362 L248.701996,132.716362 L247.733493,129.914796 L243.841871,129.914796 L242.890977,132.716362 L239.826985,132.716362 Z M245.796486,123.27209 L244.299709,127.923747 L247.240437,127.923747 L245.796486,123.27209 Z M264.511809,122.743493 L260.708233,122.743493 L260.708233,132.716362 L257.820333,132.716362 L257.820333,122.743493 L253.999148,122.743493 L253.999148,120.206226 L264.511809,120.206226 L264.511809,122.743493 Z M277.926778,130.179095 L277.926778,132.716362 L269.139813,132.716362 L269.139813,120.206226 L277.768295,120.206226 L277.768295,122.743493 L272.027713,122.743493 L272.027713,125.175041 L276.958274,125.175041 L276.958274,127.518489 L272.027713,127.518489 L272.027713,130.179095 L277.926778,130.179095 Z M282.924574,132.716362 L282.924574,120.206226 L288.559501,120.206226 C289.146476,120.206226 289.689419,120.329564 290.188347,120.576244 C290.687276,120.822924 291.118695,121.145953 291.48262,121.545339 C291.846544,121.944726 292.131222,122.396966 292.336663,122.902072 C292.542104,123.407179 292.644823,123.918151 292.644823,124.435005 C292.644823,124.822644 292.597866,125.195595 292.50395,125.553869 C292.410034,125.912142 292.275032,126.249854 292.09894,126.567014 C291.922847,126.884174 291.708605,127.169026 291.456206,127.421579 C291.203807,127.674132 290.919128,127.888506 290.602162,128.064706 L293.472453,132.716362 L290.214761,132.716362 L287.696653,128.681403 L285.812474,128.681403 L285.812474,132.716362 L282.924574,132.716362 Z M285.812474,126.161756 L288.453846,126.161756 C288.794291,126.161756 289.087774,126.000241 289.334304,125.677208 C289.580833,125.354175 289.704096,124.940111 289.704096,124.435005 C289.704096,123.918151 289.563224,123.507024 289.281476,123.201611 C288.999728,122.896198 288.694506,122.743493 288.3658,122.743493 L285.812474,122.743493 L285.812474,126.161756 Z M299.89659,120.206226 L302.59079,125.950317 L305.337817,120.206226 L308.472245,120.206226 L304.03474,128.452344 L304.03474,132.716362 L301.14684,132.716362 L301.14684,128.417104 L296.762162,120.206226 L299.89659,120.206226 Z" id="FOOD-TRUCK-EATERY-Copy-30" fill="#000000"></path>
            <path d="M165.573577,152.90712 L165.573577,154.492497 L160.08316,154.492497 L160.08316,146.675707 L165.474552,146.675707 L165.474552,148.261084 L161.887626,148.261084 L161.887626,149.780404 L164.968421,149.780404 L164.968421,151.244676 L161.887626,151.244676 L161.887626,152.90712 L165.573577,152.90712 Z M172.542044,148.965696 C172.512703,148.936337 172.432016,148.88129 172.299981,148.800552 C172.167947,148.719815 172.002906,148.635409 171.804854,148.547332 C171.606801,148.459255 171.390414,148.382189 171.155686,148.316132 C170.920958,148.250074 170.686233,148.217046 170.451504,148.217046 C170.143423,148.217046 169.906865,148.272093 169.741821,148.382189 C169.576778,148.492285 169.494257,148.653757 169.494257,148.86661 C169.494257,148.998725 169.530933,149.10882 169.604286,149.196897 C169.677638,149.284974 169.782164,149.363875 169.917867,149.433602 C170.053569,149.50333 170.222277,149.567552 170.423997,149.62627 C170.625717,149.684988 170.858608,149.751044 171.122678,149.824442 C171.496776,149.927198 171.834193,150.039128 172.134939,150.160234 C172.435685,150.281339 172.692415,150.431802 172.905138,150.611626 C173.11786,150.79145 173.281067,151.009804 173.394764,151.266695 C173.508461,151.523586 173.565308,151.831851 173.565308,152.191498 C173.565308,152.631883 173.482788,153.00437 173.317744,153.308969 C173.152701,153.613569 172.93448,153.859446 172.663075,154.04661 C172.39167,154.233773 172.078093,154.369557 171.722332,154.453964 C171.366572,154.538371 171.001648,154.580574 170.62755,154.580574 C170.341474,154.580574 170.049902,154.558555 169.752824,154.514516 C169.455746,154.470478 169.164173,154.406256 168.878098,154.321849 C168.592023,154.237442 168.313287,154.136522 168.041882,154.019086 C167.770478,153.90165 167.521082,153.765867 167.293689,153.611732 L168.085894,152.037364 C168.12257,152.074063 168.221595,152.14379 168.38297,152.246546 C168.544346,152.349303 168.742395,152.452057 168.977124,152.554814 C169.211852,152.65757 169.475918,152.749316 169.769328,152.830053 C170.062739,152.91079 170.359812,152.951158 170.660558,152.951158 C171.298726,152.951158 171.617805,152.756658 171.617805,152.367651 C171.617805,152.220856 171.570127,152.099752 171.474768,152.004336 C171.37941,151.908919 171.247377,151.822678 171.078666,151.745611 C170.909955,151.668544 170.711906,151.596982 170.484513,151.530924 C170.25712,151.464867 170.007724,151.39147 169.73632,151.310733 C169.376892,151.200637 169.065148,151.081368 168.801078,150.952922 C168.537009,150.824477 168.316954,150.675849 168.140908,150.507035 C167.964862,150.338221 167.834663,150.14372 167.750307,149.923528 C167.665952,149.703336 167.623774,149.446448 167.623774,149.152858 C167.623774,148.741833 167.700794,148.378521 167.854834,148.062912 C168.008875,147.747303 168.217926,147.481241 168.481996,147.264718 C168.746065,147.048196 169.052308,146.884889 169.400733,146.774793 C169.749158,146.664696 170.11775,146.609649 170.506518,146.609649 C170.785258,146.609649 171.056659,146.635338 171.320729,146.686716 C171.584798,146.738094 171.836027,146.804151 172.074423,146.884888 C172.312819,146.965625 172.538375,147.057371 172.751098,147.160127 C172.96382,147.262884 173.154534,147.365639 173.323246,147.468395 L172.542044,148.965696 Z M181.777096,148.261084 L179.400482,148.261084 L179.400482,154.492497 L177.596016,154.492497 L177.596016,148.261084 L175.2084,148.261084 L175.2084,146.675707 L181.777096,146.675707 L181.777096,148.261084 Z M187.219836,152.257556 L187.219836,150.672178 L190.608711,150.672178 L190.608711,152.257556 L187.219836,152.257556 Z M196.744631,152.741976 L199.770412,150.022614 C199.924452,149.883159 200.078491,149.725357 200.232531,149.549203 C200.386572,149.373049 200.463591,149.167539 200.463591,148.932667 C200.463591,148.668436 200.368234,148.461092 200.177517,148.310627 C199.9868,148.160162 199.763078,148.084931 199.506344,148.084931 C199.198263,148.084931 198.958036,148.180346 198.785658,148.371179 C198.613279,148.562013 198.516088,148.796881 198.494082,149.075792 L196.843656,148.954686 C196.865662,148.551 196.950017,148.200533 197.096722,147.903273 C197.243427,147.606013 197.437809,147.3583 197.679872,147.160127 C197.921936,146.961954 198.206173,146.813327 198.532592,146.71424 C198.859012,146.615153 199.212933,146.565611 199.594366,146.565611 C199.946459,146.565611 200.276541,146.615153 200.584622,146.71424 C200.892703,146.813327 201.160436,146.960119 201.387829,147.154623 C201.615223,147.349126 201.7931,147.593169 201.921467,147.886759 C202.049834,148.180348 202.114017,148.521642 202.114017,148.910648 C202.114017,149.160199 202.088344,149.385893 202.036997,149.587736 C201.98565,149.789579 201.914132,149.97307 201.822442,150.138214 C201.730751,150.303359 201.622557,150.455656 201.497858,150.595111 C201.373158,150.734567 201.237458,150.87035 201.090753,151.002465 L198.725142,153.039235 L202.180034,153.039235 L202.180034,154.492497 L196.744631,154.492497 L196.744631,152.741976 Z M204.307251,150.595111 C204.307251,150.132707 204.349428,149.662971 204.433784,149.185887 C204.518139,148.708804 204.66851,148.275765 204.8849,147.886759 C205.10129,147.497752 205.39653,147.180313 205.770629,146.934431 C206.144727,146.68855 206.621512,146.565611 207.200998,146.565611 C207.780484,146.565611 208.257269,146.68855 208.631367,146.934431 C209.005465,147.180313 209.300705,147.497752 209.517096,147.886759 C209.733486,148.275765 209.883857,148.708804 209.968212,149.185887 C210.052568,149.662971 210.094745,150.132707 210.094745,150.595111 C210.094745,151.057515 210.052568,151.527252 209.968212,152.004336 C209.883857,152.481419 209.733486,152.914458 209.517096,153.303464 C209.300705,153.692471 209.005465,154.00991 208.631367,154.255792 C208.257269,154.501673 207.780484,154.624612 207.200998,154.624612 C206.621512,154.624612 206.144727,154.501673 205.770629,154.255792 C205.39653,154.00991 205.10129,153.692471 204.8849,153.303464 C204.66851,152.914458 204.518139,152.481419 204.433784,152.004336 C204.349428,151.527252 204.307251,151.057515 204.307251,150.595111 L204.307251,150.595111 Z M205.957677,150.595111 C205.957677,150.800624 205.966846,151.046502 205.985184,151.332752 C206.003522,151.619002 206.053034,151.894239 206.133722,152.15847 C206.21441,152.4227 206.337274,152.646559 206.502318,152.830053 C206.667361,153.013547 206.900252,153.105292 207.200998,153.105292 C207.494408,153.105292 207.725466,153.013547 207.894177,152.830053 C208.062888,152.646559 208.187585,152.4227 208.268273,152.15847 C208.348961,151.894239 208.398474,151.619002 208.416812,151.332752 C208.43515,151.046502 208.444319,150.800624 208.444319,150.595111 C208.444319,150.389599 208.43515,150.143721 208.416812,149.857471 C208.398474,149.571221 208.348961,149.295984 208.268273,149.031753 C208.187585,148.767522 208.062888,148.543664 207.894177,148.36017 C207.725466,148.176676 207.494408,148.084931 207.200998,148.084931 C206.900252,148.084931 206.667361,148.176676 206.502318,148.36017 C206.337274,148.543664 206.21441,148.767522 206.133722,149.031753 C206.053034,149.295984 206.003522,149.571221 205.985184,149.857471 C205.966846,150.143721 205.957677,150.389599 205.957677,150.595111 L205.957677,150.595111 Z M214.051225,148.547332 L212.488822,149.923528 L211.55358,148.844591 L214.095236,146.697726 L215.635634,146.697726 L215.635634,154.492497 L214.051225,154.492497 L214.051225,148.547332 Z M220.978472,149.483145 C221.066495,149.461126 221.154517,149.442777 221.24254,149.428098 C221.330563,149.413418 221.422252,149.406078 221.517611,149.406078 C221.884374,149.406078 222.218123,149.472135 222.518869,149.604251 C222.819615,149.736366 223.076345,149.916187 223.289068,150.143719 C223.501791,150.371251 223.666832,150.640983 223.784196,150.952922 C223.90156,151.264861 223.960241,151.59698 223.960241,151.949288 C223.960241,152.352974 223.885056,152.718121 223.734683,153.044739 C223.58431,153.371358 223.378926,153.652099 223.118524,153.886971 C222.858122,154.121843 222.550046,154.303499 222.194285,154.431945 C221.838525,154.56039 221.458931,154.624612 221.055492,154.624612 C220.644717,154.624612 220.263289,154.56039 219.911196,154.431945 C219.559104,154.303499 219.252861,154.121843 218.992459,153.886971 C218.732057,153.652099 218.526673,153.371358 218.3763,153.044739 C218.225927,152.718121 218.150742,152.352974 218.150742,151.949288 C218.150742,151.670377 218.176415,151.415325 218.227762,151.184123 C218.279109,150.952921 218.346959,150.734567 218.431314,150.529054 C218.51567,150.323541 218.614694,150.127206 218.728391,149.940042 C218.842087,149.752879 218.961284,149.560213 219.085983,149.36204 L220.791423,146.697726 L222.804943,146.697726 L220.978472,149.483145 Z M222.309815,151.88323 C222.309815,151.530923 222.194287,151.239172 221.963226,151.00797 C221.732165,150.776768 221.42959,150.661169 221.055492,150.661169 C220.681393,150.661169 220.378818,150.776768 220.147757,151.00797 C219.916696,151.239172 219.801168,151.530923 219.801168,151.88323 C219.801168,152.235538 219.916696,152.527289 220.147757,152.758491 C220.378818,152.989693 220.681393,153.105292 221.055492,153.105292 C221.42959,153.105292 221.732165,152.989693 221.963226,152.758491 C222.194287,152.527289 222.309815,152.235538 222.309815,151.88323 L222.309815,151.88323 Z" id="EST---2016" fill="#000000"></path>
            <g id="Group-2" transform="translate(104.054054, 42.447964)" stroke="#000000" stroke-width="3.2" stroke-linecap="square">
                <path d="M128.066528,0.800904977 L176.091476,0.800904977" id="Line-Copy-47"></path>
                <path d="M0,0.800904977 L48.024948,0.800904977" id="Line-Copy-48"></path>
            </g>
        </g>
    </g>
</svg>