<?xml version="1.0" encoding="UTF-8" standalone="no"?>
<svg width="101px" height="84px" viewBox="0 0 101 84" version="1.1" xmlns="http://www.w3.org/2000/svg" xmlns:xlink="http://www.w3.org/1999/xlink">
    <!-- Generator: Sketch 39.1 (31720) - http://www.bohemiancoding.com/sketch -->
    <title>Group 26</title>
    <desc>Created with Sketch.</desc>
    <defs></defs>
    <g id="Logo-Grid" stroke="none" stroke-width="1" fill="none" fill-rule="evenodd">
        <g id="Group-26">
            <path d="M85.3543161,74.1470639 C82.4483495,77.0548065 79.3703654,79.1973215 76.1202712,80.5746732 C72.870177,81.9520249 69.3333629,82.6406905 65.5097227,82.6406905 C60.3860449,82.6406905 55.5492126,81.4929146 50.9990807,79.1973284 C46.4489489,76.9017421 42.4724228,73.8410064 39.069383,70.0150294 C35.6663432,66.1890524 32.9707173,61.731856 30.9824244,56.6433066 C28.9941315,51.5547572 28,46.2558585 28,40.7464515 C28,35.1605251 28.9941315,29.880756 30.9824244,24.9069859 C32.9707173,19.9332157 35.723697,15.6099266 39.241446,11.9369886 C42.7591949,8.26405068 46.8886644,5.35635176 51.6299782,3.21380463 C56.3712921,1.0712575 61.4948931,0 67.0009349,0 C74.1893785,0 80.4982902,1.58775665 85.9278592,4.76331758 C91.3574283,7.9388785 95.4104261,12.2812973 98.0869743,17.7907042 L83.9778125,28.350348 C82.2954108,24.67741 79.8674357,21.8270999 76.6938144,19.7993321 C73.520193,17.7715643 70.0980864,16.7576956 66.4273918,16.7576956 C63.5214252,16.7576956 60.902271,17.3889723 58.5698505,18.6515447 C56.23743,19.9141171 54.2109311,21.6740402 52.490293,23.9313666 C50.7696549,26.1886931 49.4505188,28.809448 48.5328452,31.7937101 C47.6151715,34.7779722 47.1563416,37.9917446 47.1563416,41.435124 C47.1563416,44.9550228 47.6534073,48.2070545 48.6475538,51.1913166 C49.6417002,54.1755787 51.0181901,56.7580744 52.7770645,58.9388813 C54.535939,61.1196882 56.6389096,62.8222225 59.0860393,64.0465351 C61.533169,65.2708478 64.209677,65.8829949 67.1156436,65.8829949 C70.4804469,65.8829949 73.6922565,65.0604222 76.7511687,63.4152521 C79.8100808,61.7700819 82.677768,59.2641046 85.3543161,55.8972448 L85.3543161,53.1425551 L69.6392335,53.1425551 L69.6392335,39.4838854 L100.95469,39.4838854 L100.95469,82.0667968 L85.3543161,82.0667968 L85.3543161,74.1470639 Z" id="Path" fill="#FF7D63"></path>
            <g id="Group-25" transform="translate(0.000000, 23.000000)">
                <rect id="Rectangle-46" fill="#5070FF" x="0" y="19" width="64" height="42"></rect>
                <rect id="Rectangle-46" fill="#FFFFFF" x="6" y="25" width="34" height="6"></rect>
                <rect id="Rectangle-46-Copy" fill="#FFFFFF" x="44" y="25" width="14" height="6"></rect>
                <circle id="Oval-52" fill="#FFFFFF" cx="7" cy="38" r="1"></circle>
                <circle id="Oval-52-Copy-3" fill="#FFFFFF" cx="19" cy="38" r="1"></circle>
                <circle id="Oval-52-Copy" fill="#FFFFFF" cx="11" cy="38" r="1"></circle>
                <circle id="Oval-52-Copy-4" fill="#FFFFFF" cx="23" cy="38" r="1"></circle>
                <circle id="Oval-52-Copy-6" fill="#FFFFFF" cx="31" cy="38" r="1"></circle>
                <circle id="Oval-52-Copy-2" fill="#FFFFFF" cx="15" cy="38" r="1"></circle>
                <circle id="Oval-52-Copy-5" fill="#FFFFFF" cx="27" cy="38" r="1"></circle>
                <circle id="Oval-52-Copy-7" fill="#FFFFFF" cx="35" cy="38" r="1"></circle>
                <circle id="Oval-52-Copy-8" fill="#FFFFFF" cx="39" cy="38" r="1"></circle>
                <ellipse id="Oval-52-Copy-3" fill="#FFFFFF" cx="17" cy="42" rx="1" ry="1"></ellipse>
                <ellipse id="Oval-52-Copy" fill="#FFFFFF" cx="9" cy="42" rx="1" ry="1"></ellipse>
                <circle id="Oval-52-Copy-4" fill="#FFFFFF" cx="21" cy="42" r="1"></circle>
                <circle id="Oval-52-Copy-6" fill="#FFFFFF" cx="29" cy="42" r="1"></circle>
                <circle id="Oval-52-Copy-2" fill="#FFFFFF" cx="13" cy="42" r="1"></circle>
                <circle id="Oval-52-Copy-5" fill="#FFFFFF" cx="25" cy="42" r="1"></circle>
                <ellipse id="Oval-52-Copy-7" fill="#FFFFFF" cx="33" cy="42" rx="1" ry="1"></ellipse>
                <circle id="Oval-52-Copy-8" fill="#FFFFFF" cx="37" cy="42" r="1"></circle>
                <circle id="Oval-52" fill="#FFFFFF" cx="7" cy="46" r="1"></circle>
                <circle id="Oval-52-Copy-3" fill="#FFFFFF" cx="19" cy="46" r="1"></circle>
                <circle id="Oval-52-Copy" fill="#FFFFFF" cx="11" cy="46" r="1"></circle>
                <circle id="Oval-52-Copy-4" fill="#FFFFFF" cx="23" cy="46" r="1"></circle>
                <circle id="Oval-52-Copy-6" fill="#FFFFFF" cx="31" cy="46" r="1"></circle>
                <circle id="Oval-52-Copy-2" fill="#FFFFFF" cx="15" cy="46" r="1"></circle>
                <circle id="Oval-52-Copy-5" fill="#FFFFFF" cx="27" cy="46" r="1"></circle>
                <circle id="Oval-52-Copy-7" fill="#FFFFFF" cx="35" cy="46" r="1"></circle>
                <circle id="Oval-52-Copy-8" fill="#FFFFFF" cx="39" cy="46" r="1"></circle>
                <circle id="Oval-52-Copy-9" fill="#FFFFFF" cx="51" cy="43" r="6"></circle>
                <circle id="Oval-52-Copy-9" fill="#5070FF" cx="51" cy="43" r="3"></circle>
                <ellipse id="Oval-52-Copy-3" fill="#FFFFFF" cx="17" cy="50" rx="1" ry="1"></ellipse>
                <ellipse id="Oval-52-Copy" fill="#FFFFFF" cx="9" cy="50" rx="1" ry="1"></ellipse>
                <circle id="Oval-52-Copy-4" fill="#FFFFFF" cx="21" cy="50" r="1"></circle>
                <circle id="Oval-52-Copy-6" fill="#FFFFFF" cx="29" cy="50" r="1"></circle>
                <circle id="Oval-52-Copy-2" fill="#FFFFFF" cx="13" cy="50" r="1"></circle>
                <circle id="Oval-52-Copy-5" fill="#FFFFFF" cx="25" cy="50" r="1"></circle>
                <ellipse id="Oval-52-Copy-7" fill="#FFFFFF" cx="33" cy="50" rx="1" ry="1"></ellipse>
                <circle id="Oval-52-Copy-8" fill="#FFFFFF" cx="37" cy="50" r="1"></circle>
                <circle id="Oval-52" fill="#FFFFFF" cx="7" cy="54" r="1"></circle>
                <circle id="Oval-52-Copy-3" fill="#FFFFFF" cx="19" cy="54" r="1"></circle>
                <circle id="Oval-52-Copy" fill="#FFFFFF" cx="11" cy="54" r="1"></circle>
                <circle id="Oval-52-Copy-4" fill="#FFFFFF" cx="23" cy="54" r="1"></circle>
                <circle id="Oval-52-Copy-6" fill="#FFFFFF" cx="31" cy="54" r="1"></circle>
                <circle id="Oval-52-Copy-2" fill="#FFFFFF" cx="15" cy="54" r="1"></circle>
                <circle id="Oval-52-Copy-5" fill="#FFFFFF" cx="27" cy="54" r="1"></circle>
                <circle id="Oval-52-Copy-7" fill="#FFFFFF" cx="35" cy="54" r="1"></circle>
                <circle id="Oval-52-Copy-8" fill="#FFFFFF" cx="39" cy="54" r="1"></circle>
                <path d="M9.5,27 L9.5,26" id="Line" stroke="#5070FF" stroke-linecap="square"></path>
                <path d="M14.5,27 L14.5,26" id="Line" stroke="#5070FF" stroke-linecap="square"></path>
                <path d="M19.5,27 L19.5,26" id="Line" stroke="#5070FF" stroke-linecap="square"></path>
                <path d="M24.5,27 L24.5,26" id="Line" stroke="#5070FF" stroke-linecap="square"></path>
                <path d="M29.5,27 L29.5,26" id="Line" stroke="#5070FF" stroke-linecap="square"></path>
                <path d="M34.5,27 L34.5,26" id="Line" stroke="#5070FF" stroke-linecap="square"></path>
                <path d="M59.5,20.5 L24,0" id="Line-Copy" stroke="#5070FF" stroke-linecap="round" stroke-linejoin="round"></path>
            </g>
        </g>
    </g>
</svg>