<?xml version="1.0" encoding="UTF-8" standalone="no"?>
<svg width="99px" height="85px" viewBox="0 0 99 85" version="1.1" xmlns="http://www.w3.org/2000/svg" xmlns:xlink="http://www.w3.org/1999/xlink">
    <!-- Generator: Sketch 39.1 (31720) - http://www.bohemiancoding.com/sketch -->
    <title>Group 27</title>
    <desc>Created with Sketch.</desc>
    <defs></defs>
    <g id="Logo-Grid" stroke="none" stroke-width="1" fill="none" fill-rule="evenodd">
        <g id="Group-27">
            <path d="M35,84 L35,0 L70.8259921,0 C74.8460906,0 78.5311255,0.828160732 81.8812075,2.48450704 C85.2312896,4.14085335 88.1083757,6.30984575 90.5125522,8.9915493 C92.9167287,11.6732528 94.8085113,14.7098422 96.1879569,18.1014085 C97.5674024,21.4929747 98.2571148,24.9239263 98.2571148,28.3943662 C98.2571148,32.101427 97.6068146,35.6506873 96.3061945,39.0422535 C95.0055744,42.4338198 93.192616,45.4704091 90.867265,48.1521127 C88.5419139,50.8338162 85.723946,52.9633724 82.4132767,54.5408451 C79.1026074,56.1183177 75.4372786,56.9070423 71.4171801,56.9070423 L54.390966,56.9070423 L54.390966,84 L35,84 Z M53.845407,39.1053187 L69.6892451,39.1053187 C71.9751834,39.1053187 73.9457904,38.1194131 75.601125,36.1475722 C77.2564597,34.1757314 78.0841146,31.2968869 78.0841146,27.5109525 C78.0841146,25.5391116 77.8279357,23.843354 77.3155702,22.4236286 C76.8032047,21.0039031 76.1134923,19.8208164 75.2464122,18.8743328 C74.3793322,17.9278492 73.3940287,17.2377152 72.2904723,16.8039102 C71.1869158,16.3701053 70.083376,16.153206 68.9798195,16.153206 L53.845407,16.153206 L53.845407,39.1053187 Z" id="Combined-Shape" fill="#FF7D63"></path>
            <g id="Group-24" transform="translate(0.000000, 27.000000)" fill="#5070FF">
                <polygon id="Path-442" points="5.82119395 39.451809 2.09896338 37.2798317 -1.13686838e-13 28.8264522 3.86162062 27.0637949 6.67375954 22.1209795 8.69085893 22.1209795 8.49468034 15.1846652 13.1432279 9.43648507 17.5218454 8.44526694 18.8906705 3.33724853 22.0155151 1.56647865 25.9508871 2.55769677 30.6569606 0 34.7073847 1.70513118 35.0931042 5.62427785 38.6847949 6.33819091 38.6847949 9.08469113 42.2757481 9.08469113 44.1696827 10.7824472 42.7927451 14.5046777 47.3756539 17.1855393 45.4160805 18.948934 46.5312009 21.4255043 50.5322116 26.3439818 50.5322116 28.2386539 53.4099892 31.8952458 54 35.4950491 50.1302667 40.0779579 49.3433398 42.3738374 46.1373687 44.0870812 43.8503394 42.5206026 40.3899261 44.0870812 35.0112403 41.6518117 31.6747292 43.226403 29.2475724 43.226403 30.2314153 57.1071443 22.9082047 57.1071443 25.0739835 42.4313634 21.5479315 42.627542 19.5964709 41.15104 16.6950928 43.9794043 12.1770852 43.3237548 8.97111406 43.5855721"></polygon>
            </g>
        </g>
    </g>
</svg>